Coordinates
version=1
nRows=10
nColumns=40
inDegrees=yes

Units are S.I. units (second, meters, Newtons, ...)
Angles are in degrees.

endheader
time	pelvis_tilt	pelvis_list	pelvis_rotation	pelvis_tx	pelvis_ty	pelvis_tz	hip_flexion_r	hip_adduction_r	hip_rotation_r	knee_angle_r	knee_angle_r_beta	ankle_angle_r	subtalar_angle_r	mtp_angle_r	hip_flexion_l	hip_adduction_l	hip_rotation_l	knee_angle_l	knee_angle_l_beta	ankle_angle_l	subtalar_angle_l	mtp_angle_l	lumbar_extension	lumbar_bending	lumbar_rotation	arm_flex_r	arm_add_r	arm_rot_r	elbow_flex_r	pro_sup_r	wrist_flex_r	wrist_dev_r	arm_flex_l	arm_add_l	arm_rot_l	elbow_flex_l	pro_sup_l	wrist_flex_l	wrist_dev_l
     55.01000000	     -5.88475804	     -5.01531260	     -0.76547479	      1.23842633	      0.91790399	      0.39352726	     17.16805243	     -5.99986793	     -3.60887636	     50.23064895	     50.23064895	      4.17324648	    -13.00349274	    -13.56400840	     24.93352281	     -3.39180265	     -0.86452658	     32.08415111	     32.08415111	     16.16939353	    -17.68812100	     10.07733658	    -11.07002914	      7.53654109	      5.95630600	     37.97848575	    -11.12301808	     -6.17888275	     40.80803971	     45.25719370	      0.00000000	      0.00000000	     17.29672202	    -13.65139430	     23.27350333	     43.34122416	     45.55566040	      0.00000000	      0.00000000
     55.03250000	     -5.62117214	     -4.79093161	     -1.37480713	      1.23795691	      0.91524462	      0.39077070	     19.23199903	     -6.28399697	     -2.74545397	     54.03787276	     54.03787276	      2.74162238	    -14.87753129	    -12.88731347	     24.96788762	     -3.09813517	     -1.22161249	     33.40447802	     33.40447802	     16.99156601	    -18.18766438	      9.85057575	    -11.28812547	      7.58911436	      5.58420039	     33.64635017	    -11.45982541	     -6.27211863	     38.80224993	     45.31841153	      0.00000000	      0.00000000	     19.28156748	    -13.86294701	     22.65584782	     44.70621503	     45.65086170	      0.00000000	      0.00000000
     55.05500000	     -5.22700936	     -4.77780770	     -1.99868439	      1.23761750	      0.91311889	      0.38823465	     21.05999561	     -6.13009105	     -1.81945543	     57.56922395	     57.56922395	      2.86539448	    -15.82076590	     -7.71086397	     24.86146837	     -3.01162475	     -1.45487935	     34.81383279	     34.81383279	     18.62067396	    -18.38801819	     11.71502799	    -11.71993887	      7.86334653	      5.61008867	     29.21321815	    -11.95738569	     -7.32883276	     35.63357758	     45.50938450	      0.00000000	      0.00000000	     20.97533966	    -14.00067134	     20.97461460	     47.69972930	     45.87886294	      0.00000000	      0.00000000
     55.07750000	     -4.96801007	     -4.65687344	     -2.62766000	      1.23710520	      0.91103810	      0.38588304	     22.93145111	     -6.11168418	     -1.06172121	     60.58009875	     60.58009875	      3.33038565	    -16.19183382	     -2.80864283	     24.78925780	     -2.83476680	     -1.77916539	     35.97980012	     35.97980012	     19.90396472	    -18.59000369	     12.84021514	    -11.99376794	      8.02999445	      5.31387933	     25.15377064	    -12.14331366	     -8.70571056	     32.16672213	     45.74818110	      0.00000000	      0.00000000	     22.89137738	    -14.11715316	     19.05280815	     49.47977886	     46.12046626	      0.00000000	      0.00000000
     55.10000000	     -4.76094211	     -4.54416289	     -3.29000557	      1.23662602	      0.90957414	      0.38397225	     24.47525942	     -6.05930022	     -0.46935394	     62.48138343	     62.48138343	      2.87494471	    -16.99171051	     -2.03890792	     24.52233622	     -2.74252386	     -2.29572411	     36.65595460	     36.65595460	     20.57188132	    -18.74162249	     12.76473627	    -12.22039281	      8.19359306	      5.26959440	     20.52699130	    -12.70451606	     -8.99475939	     29.78447198	     45.83871285	      0.00000000	      0.00000000	     25.03876137	    -14.38068231	     18.14227392	     51.01600709	     46.24206184	      0.00000000	      0.00000000
     55.12250000	     -4.54119175	     -4.52530271	     -3.98133406	      1.23605950	      0.90908826	      0.38263689	     25.85815681	     -5.77197130	      0.09180926	     63.73392998	     63.73392998	      4.10159042	    -16.82110291	      2.25553175	     24.06050134	     -2.75676830	     -2.74750086	     37.01320581	     37.01320581	     21.44810149	    -18.80168274	     13.59843570	    -12.52029518	      8.43331085	      5.08865545	     16.73982249	    -12.63181581	    -12.89010821	     26.19146675	     46.36911913	      0.00000000	      0.00000000	     26.74519831	    -14.44173124	     15.41310806	     52.94929298	     46.54288786	      0.00000000	      0.00000000
     55.14500000	     -4.49824481	     -4.50453118	     -4.72340718	      1.23527651	      0.90927667	      0.38193190	     27.08188593	     -5.46893262	      0.49495580	     63.81031012	     63.81031012	      4.39959670	    -16.98187613	      2.23203953	     23.56963717	     -2.84857047	     -3.33352785	     36.91746876	     36.91746876	     21.81089310	    -18.84729193	     13.63788677	    -12.62767915	      8.63475311	      5.02750923	     12.31745077	    -13.03924047	    -13.11165124	     24.32945181	     46.43597504	      0.00000000	      0.00000000	     28.67670547	    -14.93969521	     14.41126748	     54.48271373	     46.66338880	      0.00000000	      0.00000000
     55.16750000	     -4.55751428	     -4.60825420	     -5.45662254	      1.23427024	      0.91036984	      0.38191977	     28.10597618	     -4.98063611	      0.72196882	     62.86511667	     62.86511667	      5.10609654	    -16.78978912	      2.01326549	     23.00460143	     -3.10923079	     -3.88910580	     36.45580253	     36.45580253	     22.01664109	    -18.82835146	     13.72693932	    -12.59742020	      8.99317084	      4.05311923	      8.60802212	    -13.05894645	    -13.26479860	     22.95860788	     46.47599439	      0.00000000	      0.00000000	     30.28495484	    -16.40086560	     13.58945871	     55.08006591	     46.75046504	      0.00000000	      0.00000000
     55.19000000	     -4.68131839	     -4.62645077	     -6.36404438	      1.23318313	      0.91228042	      0.38257745	     28.92579382	     -4.52596910	      1.01765118	     60.86014150	     60.86014150	      5.41620388	    -16.34309859	     -0.41125310	     22.20418177	     -3.36147047	     -4.69295051	     35.43512785	     35.43512785	     21.82090741	    -18.81773108	     13.37322116	    -12.70622274	      9.12293983	      4.46905258	      3.73197563	    -13.35685263	    -14.39794660	     22.88234888	     46.57591029	      0.00000000	      0.00000000	     31.29960521	    -16.01094597	      9.43148249	     58.57413497	     47.13245576	      0.00000000	      0.00000000
     55.21250000	     -4.93404327	     -4.69601671	     -7.29160056	      1.23174364	      0.91474909	      0.38392882	     29.61435117	     -3.98430332	      1.19922598	     57.96251206	     57.96251206	      6.31038553	    -15.10168231	     -1.91479360	     21.41983306	     -3.69421470	     -5.46940766	     34.15724767	     34.15724767	     21.57739525	    -18.76726227	     13.33527185	    -12.60867905	      9.29631590	      4.40674611	     -0.12225943	    -13.44811130	    -14.65754940	     21.67258419	     46.63097823	      0.00000000	      0.00000000	     32.80865995	    -16.78475290	      8.08658647	     60.12829865	     47.26246584	      0.00000000	      0.00000000
